<svg height="436pt" viewBox="0 -3 436.90027 436" width="436pt" xmlns="http://www.w3.org/2000/svg"><path d="m197.972656 430.53125c-109.164062 0-197.972656-88.8125-197.972656-197.972656s88.808594-197.976563 197.972656-197.976563c3.769532 0 6.828125 3.054688 6.828125 6.828125v27.285156c0 3.773438-3.058593 6.828126-6.828125 6.828126-3.769531 0-6.824218-3.054688-6.824218-6.828126v-20.332031c-98.488282 3.597657-177.496094 84.839844-177.496094 184.195313 0 101.632812 82.6875 184.316406 184.320312 184.316406 99.351563 0 180.597656-79.003906 184.199219-177.492188h-20.355469c-3.769531 0-6.828125-3.050781-6.828125-6.824218 0-3.773438 3.058594-6.828125 6.828125-6.828125h27.304688c3.769531 0 6.824218 3.054687 6.824218 6.828125 0 109.160156-88.808593 197.972656-197.972656 197.972656zm0 0"/><path d="m197.972656 403.222656c-94.105468 0-170.664062-76.558594-170.664062-170.664062 0-94.109375 76.558594-170.667969 170.664062-170.667969 94.109375 0 170.667969 76.558594 170.667969 170.667969 0 94.105468-76.5625 170.664062-170.667969 170.664062zm0-327.679687c-86.578125 0-157.011718 70.433593-157.011718 157.015625 0 86.578125 70.433593 157.011718 157.011718 157.011718s157.015625-70.433593 157.015625-157.011718c0-86.582032-70.4375-157.015625-157.015625-157.015625zm0 0"/><path d="m155.917969 166.722656c0-1.292968.863281-2.152344 2.15625-2.152344h51.886719c29.5 0 44.140624 15.074219 44.140624 38.539063 0 17.015625-8.183593 27.347656-19.59375 31.867187v.433594c9.90625 2.800782 22.179688 14.207032 22.179688 33.800782 0 27.347656-17.226562 41.773437-47.800781 41.773437h-50.8125c-1.292969 0-2.15625-.859375-2.15625-2.152344zm53.613281 61.148438c16.148438 0 25.621094-9.253906 25.621094-22.820313 0-13.992187-9.472656-23.039062-25.621094-23.039062h-33.160156c-.859375 0-1.289063.433593-1.289063 1.292969v43.277343c0 .863281.429688 1.289063 1.289063 1.289063zm-33.15625 65.671875h34.234375c17.441406 0 26.914063-9.472657 26.914063-24.113281 0-14.425782-9.472657-24.121094-26.914063-24.121094h-34.234375c-.863281 0-1.292969.433594-1.292969 1.292968v45.648438c0 .859375.429688 1.292969 1.292969 1.292969zm0 0"/><path d="m184.320312 171.117188c-3.769531 0-6.828124-3.054688-6.828124-6.828126v-20.480468c0-3.773438 3.058593-6.824219 6.828124-6.824219 3.769532 0 6.828126 3.050781 6.828126 6.824219v20.480468c0 3.773438-3.058594 6.828126-6.828126 6.828126zm0 0"/><path d="m204.800781 171.117188c-3.769531 0-6.828125-3.054688-6.828125-6.828126v-20.480468c0-3.773438 3.058594-6.824219 6.828125-6.824219s6.824219 3.050781 6.824219 6.824219v20.480468c0 3.773438-3.054688 6.828126-6.824219 6.828126zm0 0"/><path d="m184.320312 334.957031c-3.769531 0-6.828124-3.054687-6.828124-6.828125v-20.480468c0-3.773438 3.058593-6.824219 6.828124-6.824219 3.769532 0 6.828126 3.050781 6.828126 6.824219v20.480468c0 3.773438-3.058594 6.828125-6.828126 6.828125zm0 0"/><path d="m204.800781 334.957031c-3.769531 0-6.828125-3.054687-6.828125-6.828125v-20.480468c0-3.773438 3.058594-6.824219 6.828125-6.824219s6.824219 3.050781 6.824219 6.824219v20.480468c0 3.773438-3.054688 6.828125-6.824219 6.828125zm0 0"/><path d="m375.464844 150.636719c-5.472656 0-10.617188-2.132813-14.480469-6l-40.957031-40.960938c-7.988282-7.988281-7.988282-20.972656 0-28.960937 7.726562-7.730469 21.230468-7.730469 28.964844 0l5.996093 6v-59.785156c0-11.292969 9.1875-20.480469 20.480469-20.480469s20.480469 9.1875 20.480469 20.480469v59.785156l6-6c7.726562-7.730469 21.230469-7.730469 28.964843 0 7.984376 7.988281 7.984376 20.972656-.003906 28.960937l-40.960937 40.960938c-3.867188 3.867187-9.007813 6-14.484375 6zm-40.957032-68.265625c-1.824218 0-3.539062.707031-4.824218 2-2.664063 2.660156-2.664063 6.992187-.003906 9.652344l40.960937 40.960937c2.578125 2.585937 7.074219 2.585937 9.648437 0l40.964844-40.960937c2.660156-2.660157 2.660156-6.992188 0-9.652344-2.582031-2.589844-7.078125-2.589844-9.648437 0l-17.660157 17.652344c-1.957031 1.953124-4.890624 2.539062-7.4375 1.480468-2.550781-1.054687-4.214843-3.546875-4.214843-6.304687v-76.269531c0-3.765626-3.0625-6.828126-6.828125-6.828126-3.761719 0-6.824219 3.0625-6.824219 6.828126v76.269531c0 2.757812-1.664063 5.25-4.214844 6.304687-2.5625 1.058594-5.488281.472656-7.4375-1.480468l-17.65625-17.652344c-1.289062-1.292969-3.003906-2-4.824219-2zm0 0"/></svg>